FFmpeg version SVN-r25716, Copyright (c) 2000-2010 the FFmpeg developers  built on Nov 10 2010 12:23:18 with gcc 4.1.2 20080704 (Red Hat 4.1.2-48)  configuration: --enable-libmp3lame --enable-shared --disable-mmx --arch=x86_64  libavutil     50.33. 0 / 50.33. 0  libavcore      0.12. 1 /  0.12. 1  libavcodec    52.94. 4 / 52.94. 4  libavformat   52.84. 0 / 52.84. 0  libavdevice   52. 2. 2 / 52. 2. 2  libavfilter    1.59. 0 /  1.59. 0  libswscale     0.12. 0 /  0.12. 0Input #0, avi, from '/RAID10/data/converted_video_files/47514.avi':  Duration: 00:00:13.25, start: 0.000000, bitrate: 188484 kb/s    Stream #0.0: Video: msvideo1, rgb555le, 1024x1024, 20 tbr, 20 tbn, 20 tbc[buffer @ 0x12a84050] w:1024 h:1024 pixfmt:rgb555le[ffsink @ 0x12a842c0] auto-inserting filter 'auto-inserted scaler 0' between the filter 'src' and the filter 'out'[scale @ 0x12a96250] w:1024 h:1024 fmt:rgb555le -> w:1024 h:1024 fmt:yuv420p flags:0x4Output #0, flv, to '/RAID10/data/converted_video_files/47514.flv':  Metadata:    encoder         : Lavf52.84.0    Stream #0.0: Video: flv, yuv420p, 1024x1024, q=2-31, 600 kb/s, 1k tbn, 24 tbcStream mapping:  Stream #0.0 -> #0.0Press [q] to stop encodingframe=    7 fps=  0 q=9.5 size=     755kB time=0.33 bitrate=18525.6kbits/s    frame=   15 fps= 13 q=30.2 size=     810kB time=0.75 bitrate=8843.0kbits/s    frame=   25 fps= 15 q=24.8 size=     852kB time=1.25 bitrate=5584.2kbits/s    frame=   35 fps= 16 q=31.0 size=     858kB time=1.75 bitrate=4019.9kbits/s    frame=   46 fps= 16 q=31.0 size=     892kB time=2.29 bitrate=3187.1kbits/s    frame=   51 fps= 15 q=31.0 size=     922kB time=2.54 bitrate=2970.1kbits/s    frame=   58 fps= 15 q=31.0 size=     926kB time=2.88 bitrate=2639.3kbits/s    frame=   68 fps= 16 q=31.0 size=     959kB time=3.37 bitrate=2328.6kbits/s    frame=   78 fps= 16 q=31.0 size=     993kB time=3.88 bitrate=2099.0kbits/s    frame=   89 fps= 16 q=31.0 size=    1026kB time=4.46 bitrate=1885.4kbits/s    frame=   99 fps= 17 q=31.0 size=    1059kB time=4.96 bitrate=1749.6kbits/s    frame=  108 fps= 17 q=31.0 size=    1065kB time=5.38 bitrate=1623.8kbits/s    frame=  119 fps= 17 q=31.0 size=    1098kB time=5.96 bitrate=1510.1kbits/s    frame=  129 fps= 17 q=31.0 size=    1131kB time=6.46 bitrate=1434.2kbits/s    frame=  138 fps= 17 q=31.0 size=    1164kB time=6.88 bitrate=1387.3kbits/s    frame=  149 fps= 17 q=31.0 size=    1198kB time=7.46 bitrate=1316.4kbits/s    frame=  158 fps= 17 q=31.0 size=    1230kB time=7.87 bitrate=1279.9kbits/s    frame=  167 fps= 17 q=31.0 size=    1238kB time=8.33 bitrate=1216.9kbits/s    frame=  178 fps= 18 q=31.0 size=    1271kB time=8.88 bitrate=1173.6kbits/s    frame=  186 fps= 17 q=31.0 size=    1303kB time=9.29 bitrate=1148.4kbits/s    frame=  195 fps= 17 q=31.0 size=    1334kB time=9.75 bitrate=1121.1kbits/s    frame=  205 fps= 18 q=24.8 size=    1368kB time=10.25 bitrate=1093.3kbits/s    frame=  214 fps= 18 q=31.0 size=    1374kB time=10.71 bitrate=1051.1kbits/s    frame=  225 fps= 18 q=31.0 size=    1408kB time=11.25 bitrate=1025.5kbits/s    frame=  234 fps= 18 q=31.0 size=    1441kB time=11.71 bitrate=1008.4kbits/s    frame=  243 fps= 18 q=31.0 size=    1475kB time=12.12 bitrate= 996.2kbits/s    frame=  254 fps= 18 q=31.0 size=    1508kB time=12.71 bitrate= 971.8kbits/s    frame=  265 fps= 18 q=24.8 size=    1542kB time=13.25 bitrate= 953.1kbits/s    frame=  265 fps= 18 q=24.8 Lsize=    1542kB time=13.25 bitrate= 953.1kbits/s    video:1537kB audio:0kB global headers:0kB muxing overhead 0.282700%